<svg width="57" height="12" viewBox="0 0 57 12" fill="none" xmlns="http://www.w3.org/2000/svg">
<path d="M5.77391 8.30891L8.74791 10.1039L7.96191 6.72191L10.5889 4.44591L7.12591 4.15191L5.77391 0.961914L4.42191 4.15191L0.961914 4.44591L3.58891 6.72191L2.79991 10.1049L5.77391 8.30891Z" fill="#EF4444"/>
<path d="M28.8701 8.30891L31.8441 10.1039L31.0581 6.72191L33.6851 4.44591L30.2221 4.15191L28.8701 0.961914L27.5181 4.15191L24.0581 4.44591L26.6851 6.72191L25.8961 10.1049L28.8701 8.30891Z" fill="#EF4444"/>
<path d="M17.3218 8.30891L20.2958 10.1039L19.5098 6.72191L22.1368 4.44591L18.6738 4.15191L17.3218 0.961914L15.9698 4.15191L12.5098 4.44591L15.1368 6.72191L14.3478 10.1049L17.3218 8.30891Z" fill="#EF4444"/>
<path d="M40.418 8.30891L43.392 10.1039L42.606 6.72191L45.233 4.44591L41.77 4.15191L40.418 0.961914L39.066 4.15191L35.606 4.44591L38.233 6.72191L37.444 10.1049L40.418 8.30891Z" fill="#EF4444"/>
<path d="M51.9668 8.30891L54.9408 10.1039L54.1548 6.72191L56.7818 4.44591L53.3188 4.15191L51.9668 0.961914L50.6148 4.15191L47.1548 4.44591L49.7818 6.72191L48.9928 10.1049L51.9668 8.30891Z" fill="#EF4444"/>
</svg>
