<svg width="13" height="12" viewBox="0 0 13 12" fill="none" xmlns="http://www.w3.org/2000/svg">
<path d="M12.1145 5.25H7.64998V0.75C7.64998 0.551088 7.57158 0.360322 7.43203 0.21967C7.29249 0.0790178 7.10323 0 6.90588 0C6.70853 0 6.51927 0.0790178 6.37973 0.21967C6.24018 0.360322 6.16179 0.551088 6.16179 0.75V5.25H1.69722C1.49987 5.25 1.31061 5.32902 1.17107 5.46967C1.03152 5.61032 0.953125 5.80109 0.953125 6C0.953125 6.19891 1.03152 6.38968 1.17107 6.53033C1.31061 6.67098 1.49987 6.75 1.69722 6.75H6.16179V11.25C6.16179 11.4489 6.24018 11.6397 6.37973 11.7803C6.51927 11.921 6.70853 12 6.90588 12C7.10323 12 7.29249 11.921 7.43203 11.7803C7.57158 11.6397 7.64998 11.4489 7.64998 11.25V6.75H12.1145C12.3119 6.75 12.5012 6.67098 12.6407 6.53033C12.7802 6.38968 12.8586 6.19891 12.8586 6C12.8586 5.80109 12.7802 5.61032 12.6407 5.46967C12.5012 5.32902 12.3119 5.25 12.1145 5.25Z" fill="#424242"/>
</svg>
