<svg width="20" height="20" viewBox="0 0 20 20" fill="none" xmlns="http://www.w3.org/2000/svg">
<g clip-path="url(#clip0_2105_109198)">
<path fill-rule="evenodd" clip-rule="evenodd" d="M13.3337 7.50033C13.3337 8.38438 12.9825 9.23223 12.3573 9.85735C11.7322 10.4825 10.8844 10.8337 10.0003 10.8337C9.11627 10.8337 8.26842 10.4825 7.6433 9.85735C7.01818 9.23223 6.66699 8.38438 6.66699 7.50033C6.66699 6.61627 7.01818 5.76842 7.6433 5.1433C8.26842 4.51818 9.11627 4.16699 10.0003 4.16699C10.8844 4.16699 11.7322 4.51818 12.3573 5.1433C12.9825 5.76842 13.3337 6.61627 13.3337 7.50033ZM11.667 7.50033C11.667 7.94235 11.4914 8.36628 11.1788 8.67884C10.8663 8.9914 10.4424 9.16699 10.0003 9.16699C9.5583 9.16699 9.13438 8.9914 8.82181 8.67884C8.50925 8.36628 8.33366 7.94235 8.33366 7.50033C8.33366 7.0583 8.50925 6.63437 8.82181 6.32181C9.13438 6.00925 9.5583 5.83366 10.0003 5.83366C10.4424 5.83366 10.8663 6.00925 11.1788 6.32181C11.4914 6.63437 11.667 7.0583 11.667 7.50033Z" fill="#424242"/>
<path fill-rule="evenodd" clip-rule="evenodd" d="M10.0002 0.833496C4.93766 0.833496 0.833496 4.93766 0.833496 10.0002C0.833496 15.0627 4.93766 19.1668 10.0002 19.1668C15.0627 19.1668 19.1668 15.0627 19.1668 10.0002C19.1668 4.93766 15.0627 0.833496 10.0002 0.833496ZM2.50016 10.0002C2.50016 11.7418 3.09433 13.3452 4.09016 14.6185C4.7897 13.7003 5.69196 12.9561 6.72653 12.4441C7.7611 11.9321 8.89999 11.6661 10.0543 11.6668C11.1938 11.6655 12.3186 11.9244 13.3428 12.4238C14.367 12.9232 15.2636 13.6499 15.9643 14.5485C16.6864 13.6015 17.1725 12.4962 17.3826 11.324C17.5926 10.1518 17.5205 8.94644 17.1722 7.80765C16.824 6.66886 16.2095 5.62937 15.3797 4.77519C14.55 3.92102 13.5287 3.27671 12.4005 2.89559C11.2723 2.51446 10.0695 2.40747 8.89171 2.58347C7.71393 2.75947 6.59499 3.21341 5.62747 3.90771C4.65995 4.60201 3.87167 5.51672 3.32785 6.57616C2.78404 7.6356 2.50031 8.8093 2.50016 10.0002ZM10.0002 17.5002C8.27842 17.503 6.60862 16.9106 5.2735 15.8235C5.81084 15.054 6.52616 14.4258 7.35856 13.9922C8.19096 13.5587 9.11579 13.3327 10.0543 13.3335C10.9811 13.3327 11.8948 13.553 12.7193 13.9763C13.5439 14.3995 14.2555 15.0133 14.7952 15.7668C13.4497 16.8893 11.7524 17.5029 10.0002 17.5002Z" fill="#424242"/>
</g>
<defs>
<clipPath id="clip0_2105_109198">
<rect width="20" height="20" fill="white"/>
</clipPath>
</defs>
</svg>
