<svg width="19" height="18" viewBox="0 0 19 18" fill="none" xmlns="http://www.w3.org/2000/svg">
<path fill-rule="evenodd" clip-rule="evenodd" d="M6.5376 1.45898C3.77617 1.45898 1.5376 3.69756 1.5376 6.45898V11.0482C1.5376 13.8096 3.77618 16.0482 6.5376 16.0482H11.9159C14.6774 16.0482 16.9159 13.8096 16.9159 11.0482V6.45898C16.9159 3.69756 14.6774 1.45898 11.9159 1.45898H6.5376ZM13.8403 5.10628C14.2649 5.10628 14.6092 4.77969 14.6092 4.37682C14.6092 3.97396 14.2649 3.64736 13.8403 3.64736C13.4156 3.64736 13.0713 3.97396 13.0713 4.37682C13.0713 4.77969 13.4156 5.10628 13.8403 5.10628ZM13.0713 8.75358C13.0713 10.7679 11.3501 12.4009 9.22676 12.4009C7.10346 12.4009 5.38218 10.7679 5.38218 8.75358C5.38218 6.73924 7.10346 5.10628 9.22676 5.10628C11.3501 5.10628 13.0713 6.73924 13.0713 8.75358ZM9.22676 10.942C10.5007 10.942 11.5335 9.96219 11.5335 8.75358C11.5335 7.54498 10.5007 6.5652 9.22676 6.5652C7.95278 6.5652 6.92001 7.54498 6.92001 8.75358C6.92001 9.96219 7.95278 10.942 9.22676 10.942Z" fill="#424242"/>
</svg>
