<svg width="24" height="24" viewBox="0 0 24 24" fill="none" xmlns="http://www.w3.org/2000/svg">
<path d="M13.9998 16.9877C13.8685 16.9878 13.7384 16.962 13.6171 16.9117C13.4957 16.8615 13.3855 16.7877 13.2928 16.6947L9.29279 12.6947C9.10532 12.5072 9 12.2529 9 11.9877C9 11.7225 9.10532 11.4682 9.29279 11.2807L13.2928 7.28071C13.4814 7.09855 13.734 6.99776 13.9962 7.00004C14.2584 7.00232 14.5092 7.10749 14.6946 7.29289C14.88 7.4783 14.9852 7.72911 14.9875 7.99131C14.9897 8.25351 14.8889 8.50611 14.7068 8.69471L11.4138 11.9877L14.7068 15.2807C14.8466 15.4206 14.9418 15.5987 14.9804 15.7927C15.0189 15.9866 14.9991 16.1877 14.9235 16.3704C14.8478 16.5531 14.7197 16.7092 14.5552 16.8191C14.3908 16.929 14.1975 16.9877 13.9998 16.9877Z" fill="#424242"/>
</svg>
