<svg width="24" height="24" viewBox="0 0 24 24" fill="none" xmlns="http://www.w3.org/2000/svg">
<path d="M10.0002 7.01229C10.1316 7.01215 10.2616 7.03797 10.3829 7.08825C10.5043 7.13853 10.6145 7.21229 10.7072 7.30529L14.7072 11.3053C14.8947 11.4928 15 11.7471 15 12.0123C15 12.2775 14.8947 12.5318 14.7072 12.7193L10.7072 16.7193C10.5186 16.9014 10.266 17.0022 10.0038 17C9.74162 16.9977 9.4908 16.8925 9.3054 16.7071C9.11999 16.5217 9.01482 16.2709 9.01254 16.0087C9.01026 15.7465 9.11106 15.4939 9.29321 15.3053L12.5862 12.0123L9.29321 8.71929C9.1534 8.57944 9.0582 8.40127 9.01963 8.20732C8.98106 8.01337 9.00087 7.81233 9.07654 7.62963C9.15221 7.44693 9.28035 7.29077 9.44476 7.18089C9.60917 7.071 9.80246 7.01233 10.0002 7.01229Z" fill="#424242"/>
</svg>
